<?xml version="1.0" encoding="utf-8"?>
<!-- Generator: Adobe Illustrator 24.2.3, SVG Export Plug-In . SVG Version: 6.00 Build 0)  -->
<svg version="1.1" id="logo" xmlns="http://www.w3.org/2000/svg" xmlns:xlink="http://www.w3.org/1999/xlink" x="0px" y="0px"
	 viewBox="0 0 1080 1080" style="enable-background:new 0 0 1080 1080;" xml:space="preserve">
<style type="text/css">
	.st0{fill:#010202;}
</style>
<g>
	<polygon points="532.98,402 584.7,402 584.7,522.19 635.67,522.19 635.67,402 686.64,402 686.64,608.9 635.77,675.18 
		635.77,572.49 582.99,572.49 582.99,739.74 532.98,804.4 	"/>
	<polygon points="520.62,402 468.89,402 468.89,522.19 417.92,522.19 417.92,402 366.96,402 366.96,608.9 417.83,675.18 
		417.83,572.49 470.6,572.49 470.6,739.74 520.62,804.4 	"/>
	<g>
		<path class="st0" d="M692.96,243.47l-4.67,99.49c0,0.23-0.11,0.46-0.27,0.61c-0.5-0.08-1-0.12-1.49-0.12H369.65
			c-0.5,0-1,0.04-1.49,0.12c-0.15-0.15-0.27-0.38-0.27-0.61l-4.67-99.49c-0.08-1.38,1.95-1.61,2.18-0.23
			c8.05,44.33,23.52,73.1,42.6,73.1c22.11,0,40.03-88,40.03-114.78c0,52.75,17.89,114.78,40.03,114.78c22.11,0,40-59.38,40-172.48
			c0,113.09,17.93,172.48,40.03,172.48c22.14,0,40.03-62.03,40.03-114.78c0,26.78,17.93,114.78,40.03,114.78
			c19.08,0,34.56-28.77,42.6-73.1C691,241.86,693.03,242.09,692.96,243.47z"/>
		<path class="st0" d="M694.11,354.88v1.34c0,4.21-3.41,7.59-7.59,7.59H369.65c-4.18,0-7.59-3.37-7.59-7.59v-1.34
			c0-4.18,3.41-7.59,7.59-7.59h316.87C690.7,347.29,694.11,350.7,694.11,354.88z"/>
		<path class="st0" d="M694.11,356.22c0,4.21-3.41,7.59-7.59,7.59H369.65c-4.18,0-7.59-3.37-7.59-7.59v-1.34
			c0-4.18,3.41-7.59,7.59-7.59h316.87c4.18,0,7.59,3.41,7.59,7.59V356.22z"/>
		<rect x="369.54" y="367.64" class="st0" width="317.1" height="25.11"/>
	</g>
</g>
</svg>
